<svg xmlns="http://www.w3.org/2000/svg" version="1.1" xmlns:xlink="http://www.w3.org/1999/xlink" xmlns:svgjs="http://svgjs.dev/svgjs" width="1080" height="1500" preserveAspectRatio="none" viewBox="0 0 1080 1500"><g mask="url(&quot;#SvgjsMask13481&quot;)" fill="none"><rect width="1080" height="1500" x="0" y="0" fill="url(&quot;#SvgjsRadialGradient13482&quot;)"></rect><path d="M1110.874,1316.152C1208.755,1315.404,1294.264,1256.343,1343.828,1171.935C1394.09,1086.339,1404.57,982.397,1358.48,894.484C1308.946,800.003,1217.338,720.839,1110.874,727.598C1011.598,733.9,959.183,835.058,912.325,922.807C869.245,1003.48,830.46,1093.899,871.671,1175.543C916.341,1264.038,1011.747,1316.91,1110.874,1316.152" fill="rgba(147, 164, 178, 0.21)" class="triangle-float3"></path><path d="M470.352,794.176C533.771,797.429,596.374,767.613,628.347,712.747C660.523,657.533,657.375,587.192,621.974,533.989C589.796,485.63,528.431,474.414,470.352,475.299C414.234,476.154,355.191,490.238,326.527,538.491C297.371,587.572,310.156,648.103,338.144,697.859C366.795,748.793,411.99,791.182,470.352,794.176" fill="rgba(147, 164, 178, 0.21)" class="triangle-float3"></path><path d="M287.726,617.001C350.908,617.074,411.921,588.227,443.676,533.605C475.586,478.717,472.74,410.034,439.498,355.942C407.739,304.263,348.383,279.572,287.726,279.837C227.581,280.099,169.663,305.977,138.231,357.256C105.354,410.892,101.015,478.723,132.396,533.247C163.845,587.89,224.679,616.928,287.726,617.001" fill="rgba(147, 164, 178, 0.21)" class="triangle-float2"></path><path d="M681.758,1567.013C734.882,1565.863,780.508,1529.091,803.091,1480.993C822.795,1439.027,805.528,1393.018,782.289,1352.901C759.129,1312.92,727.928,1273.343,681.758,1271.537C633.102,1269.634,591.932,1302.87,566.619,1344.466C540.09,1388.061,527.527,1441.123,550.977,1486.449C576.194,1535.19,626.893,1568.2,681.758,1567.013" fill="rgba(147, 164, 178, 0.21)" class="triangle-float3"></path><path d="M890.875,1262.939C971.268,1263.535,1052,1235.309,1094.44,1167.029C1139.14,1095.112,1139.889,1003.509,1097.791,930.038C1055.458,856.159,976.021,811.148,890.875,811.766C806.776,812.376,730.366,859.724,689.096,933.003C648.585,1004.934,649.4,1093.622,692.471,1164.049C733.793,1231.615,811.677,1262.352,890.875,1262.939" fill="rgba(147, 164, 178, 0.21)" class="triangle-float2"></path><path d="M833.423,732.934C870.054,733.87,901.731,707.871,918.127,675.101C932.956,645.463,924.397,611.93,908.523,582.838C891.751,552.102,868.387,521.748,833.423,519.871C795.813,517.852,760.12,540.439,742.926,573.949C726.964,605.058,738.604,640.567,755.901,670.954C773.443,701.771,797.975,732.028,833.423,732.934" fill="rgba(147, 164, 178, 0.21)" class="triangle-float1"></path><path d="M969.896,883.49C1029.614,882.807,1079.526,845.205,1111.616,794.837C1146.843,739.546,1171.303,672.318,1141.708,613.819C1109.718,550.586,1040.705,511.916,969.896,514.703C903.149,517.33,850.842,567.221,820.015,626.481C791.709,680.894,791.551,745.158,822.45,798.142C853.112,850.72,909.034,884.186,969.896,883.49" fill="rgba(147, 164, 178, 0.21)" class="triangle-float1"></path></g><defs><mask id="SvgjsMask13481"><rect width="1080" height="1500" fill="#ffffff"></rect></mask><radialGradient cx="100%" cy="100%" r="1848.35" gradientUnits="userSpaceOnUse" id="SvgjsRadialGradient13482"><stop stop-color="rgba(75, 75, 75, 0.84)" offset="0"></stop><stop stop-color="rgba(199, 223, 253, 0)" offset="0"></stop></radialGradient><style>
                @keyframes float1 {
                    0%{transform: translate(0, 0)}
                    50%{transform: translate(-10px, 0)}
                    100%{transform: translate(0, 0)}
                }

                .triangle-float1 {
                    animation: float1 5s infinite;
                }

                @keyframes float2 {
                    0%{transform: translate(0, 0)}
                    50%{transform: translate(-5px, -5px)}
                    100%{transform: translate(0, 0)}
                }

                .triangle-float2 {
                    animation: float2 4s infinite;
                }

                @keyframes float3 {
                    0%{transform: translate(0, 0)}
                    50%{transform: translate(0, -10px)}
                    100%{transform: translate(0, 0)}
                }

                .triangle-float3 {
                    animation: float3 6s infinite;
                }
            </style></defs></svg>