<svg xmlns="http://www.w3.org/2000/svg" version="1.1" xmlns:xlink="http://www.w3.org/1999/xlink" xmlns:svgjs="http://svgjs.dev/svgjs" width="1080" height="1500" preserveAspectRatio="none" viewBox="0 0 1080 1500"><g mask="url(&quot;#SvgjsMask13479&quot;)" fill="none"><rect width="1080" height="1500" x="0" y="0" fill="url(&quot;#SvgjsRadialGradient13480&quot;)"></rect><path d="M574.794,1122.534C617.018,1122.267,663.051,1119.203,686.571,1084.135C712.359,1045.686,713.267,992.989,687.457,954.555C663.846,919.396,617.122,916.29,574.794,917.686C535.639,918.977,496.35,929.198,474.309,961.585C449.236,998.427,436.943,1047.761,460.544,1085.563C483.264,1121.954,531.894,1122.805,574.794,1122.534" fill="rgba(147, 164, 178, 0.21)" class="triangle-float2"></path><path d="M876.883,914.723C972.512,912.078,1060.64,867.668,1112.317,787.16C1168.856,699.077,1196.133,587.749,1145.597,496.09C1093.651,401.874,984.376,355.634,876.883,360.147C776.811,364.348,695.367,430.783,644.599,517.123C592.992,604.89,566.396,712.928,617.755,800.84C668.766,888.155,775.798,917.519,876.883,914.723" fill="rgba(147, 164, 178, 0.21)" class="triangle-float3"></path><path d="M976.429,563.92C1032.176,560.602,1079.119,525.864,1106.464,477.171C1133.19,429.579,1136.366,372.737,1110.906,324.455C1083.576,272.625,1034.938,233.721,976.429,230.573C912.261,227.121,847.626,253.545,814.317,308.5C779.883,365.31,780.905,438.341,816.503,494.429C849.886,547.026,914.242,567.621,976.429,563.92" fill="rgba(147, 164, 178, 0.21)" class="triangle-float1"></path><path d="M117.869,848.754C205.704,850.601,299.641,835.13,347.842,761.679C400.156,681.96,403.106,574.089,350.146,494.798C301.561,422.057,205.335,416.218,117.869,417.368C33.172,418.481,-58.493,429.37,-104.066,500.769C-152.45,576.572,-144.3,676.528,-95.944,752.348C-50.886,822.997,34.094,846.993,117.869,848.754" fill="rgba(147, 164, 178, 0.21)" class="triangle-float3"></path><path d="M390.912,1518.807C435.125,1518.553,481.048,1505.537,503.513,1467.455C526.276,1428.868,519.317,1379.978,495.01,1342.344C472.69,1307.786,432.031,1294.394,390.912,1293.118C346.836,1291.751,299.128,1298.612,274.993,1335.518C248.938,1375.36,250.598,1428.53,276.044,1468.764C299.971,1506.597,346.149,1519.065,390.912,1518.807" fill="rgba(147, 164, 178, 0.21)" class="triangle-float3"></path><path d="M688.933,646.864C734.53,646.549,783.582,635.51,805.873,595.732C827.819,556.57,811.793,509.041,787.222,471.47C765.241,437.86,729.093,416.908,688.933,416.927C648.808,416.946,613,438.135,590.809,471.565C565.587,509.562,546.882,557.574,569.158,597.37C591.773,637.772,642.633,647.184,688.933,646.864" fill="rgba(147, 164, 178, 0.21)" class="triangle-float2"></path><path d="M4.38,686.96C34.332,688.509,61.457,668.802,75.445,642.271C88.571,617.375,83.182,588.242,69.349,563.732C55.23,538.715,33.104,515.987,4.38,516.36C-23.887,516.727,-45.125,540.079,-57.733,565.381C-68.918,587.828,-66.407,613.19,-54.997,635.523C-42.228,660.516,-23.649,685.51,4.38,686.96" fill="rgba(147, 164, 178, 0.21)" class="triangle-float1"></path></g><defs><mask id="SvgjsMask13479"><rect width="1080" height="1500" fill="#ffffff"></rect></mask><radialGradient cx="100%" cy="100%" r="1848.35" gradientUnits="userSpaceOnUse" id="SvgjsRadialGradient13480"><stop stop-color="rgba(75, 75, 75, 0.84)" offset="0"></stop><stop stop-color="rgba(199, 223, 253, 0)" offset="0"></stop></radialGradient><style>
                @keyframes float1 {
                    0%{transform: translate(0, 0)}
                    50%{transform: translate(-10px, 0)}
                    100%{transform: translate(0, 0)}
                }

                .triangle-float1 {
                    animation: float1 5s infinite;
                }

                @keyframes float2 {
                    0%{transform: translate(0, 0)}
                    50%{transform: translate(-5px, -5px)}
                    100%{transform: translate(0, 0)}
                }

                .triangle-float2 {
                    animation: float2 4s infinite;
                }

                @keyframes float3 {
                    0%{transform: translate(0, 0)}
                    50%{transform: translate(0, -10px)}
                    100%{transform: translate(0, 0)}
                }

                .triangle-float3 {
                    animation: float3 6s infinite;
                }
            </style></defs></svg>