<svg xmlns="http://www.w3.org/2000/svg" version="1.1" xmlns:xlink="http://www.w3.org/1999/xlink" xmlns:svgjs="http://svgjs.dev/svgjs" width="1080" height="1500" preserveAspectRatio="none" viewBox="0 0 1080 1500"><g mask="url(&quot;#SvgjsMask13483&quot;)" fill="none"><rect width="1080" height="1500" x="0" y="0" fill="url(&quot;#SvgjsRadialGradient13484&quot;)"></rect><path d="M1126.12,1292.153C1220.005,1297.73,1320.104,1267.184,1366.826,1185.559C1413.325,1104.324,1384.168,1005.671,1336.064,925.376C1289.568,847.765,1216.574,781.913,1126.12,783.771C1038.112,785.579,971.267,855.634,930.599,933.703C893.309,1005.288,891.675,1088.77,930.326,1159.629C970.774,1233.782,1041.802,1287.144,1126.12,1292.153" fill="rgba(147, 164, 178, 0.21)" class="triangle-float1"></path><path d="M1059.797,928.33C1168.175,932.102,1260.71,855.848,1312.914,760.796C1363.097,669.425,1367.575,557.248,1312.065,469.012C1259.666,385.721,1158.196,357.713,1059.797,358.452C962.957,359.179,862.693,389.037,814.006,472.751C765.102,556.838,789.276,658.569,835.463,744.178C884.698,835.436,956.168,924.723,1059.797,928.33" fill="rgba(147, 164, 178, 0.21)" class="triangle-float3"></path><path d="M539.278,1233.49C588.126,1232.387,628.179,1199.106,652.442,1156.696C676.514,1114.619,685.227,1063.071,660.696,1021.26C636.412,979.87,587.252,962.656,539.278,963.821C493.483,964.933,451.725,987.94,427.659,1026.917C402.221,1068.115,393.884,1119.417,416.901,1162.015C440.97,1206.56,488.659,1234.633,539.278,1233.49" fill="rgba(147, 164, 178, 0.21)" class="triangle-float3"></path><path d="M1076.125,787.175C1179.938,791.418,1265.837,715.25,1317.661,625.198C1369.342,535.395,1389.789,424.262,1335.91,335.76C1283.692,249.986,1176.212,220.291,1076.125,228.449C989.573,235.504,922.703,296.911,880.618,372.871C840.049,446.095,830.802,531.054,866.527,606.759C908.692,696.113,977.404,783.14,1076.125,787.175" fill="rgba(147, 164, 178, 0.21)" class="triangle-float1"></path><path d="M710.328,1151.807C774.34,1150.46,832.856,1114.901,863.418,1058.64C892.682,1004.767,884.475,940.5,854.014,887.295C823.334,833.707,772.073,790.54,710.328,791.239C649.556,791.927,603.464,838.387,572.164,890.484C539.627,944.64,516.126,1009.473,545.656,1065.326C576.715,1124.072,643.892,1153.205,710.328,1151.807" fill="rgba(147, 164, 178, 0.21)" class="triangle-float2"></path><path d="M870.949,810.84C902.631,811.391,933.73,798.514,950.508,771.633C968.284,743.154,971.173,706.598,954.03,677.734C937.204,649.403,903.899,637.495,870.949,637.681C838.368,637.865,805.625,650.364,789.477,678.663C773.449,706.752,779.079,741.415,796.048,768.945C812.136,795.046,840.293,810.306,870.949,810.84" fill="rgba(147, 164, 178, 0.21)" class="triangle-float3"></path><path d="M480.655,1758.893C556.271,1759.419,618.42,1707.199,657.353,1642.374C697.703,1575.19,720.829,1492.187,681.576,1424.356C642.374,1356.612,558.865,1334.007,480.655,1337.033C408.15,1339.838,340.875,1375.873,304.97,1438.926C269.427,1501.343,273.594,1576.985,308.164,1639.946C344.192,1705.563,405.8,1758.372,480.655,1758.893" fill="rgba(147, 164, 178, 0.21)" class="triangle-float3"></path></g><defs><mask id="SvgjsMask13483"><rect width="1080" height="1500" fill="#ffffff"></rect></mask><radialGradient cx="100%" cy="100%" r="1848.35" gradientUnits="userSpaceOnUse" id="SvgjsRadialGradient13484"><stop stop-color="rgba(75, 75, 75, 0.84)" offset="0"></stop><stop stop-color="rgba(199, 223, 253, 0)" offset="0"></stop></radialGradient><style>
                @keyframes float1 {
                    0%{transform: translate(0, 0)}
                    50%{transform: translate(-10px, 0)}
                    100%{transform: translate(0, 0)}
                }

                .triangle-float1 {
                    animation: float1 5s infinite;
                }

                @keyframes float2 {
                    0%{transform: translate(0, 0)}
                    50%{transform: translate(-5px, -5px)}
                    100%{transform: translate(0, 0)}
                }

                .triangle-float2 {
                    animation: float2 4s infinite;
                }

                @keyframes float3 {
                    0%{transform: translate(0, 0)}
                    50%{transform: translate(0, -10px)}
                    100%{transform: translate(0, 0)}
                }

                .triangle-float3 {
                    animation: float3 6s infinite;
                }
            </style></defs></svg>